<?xml version="1.0" encoding="UTF-8"?>
<svg id="Layer_1" data-name="Layer 1" xmlns="http://www.w3.org/2000/svg" viewBox="0 0 331.26 306.52">
  <defs>
    <style>
      .cls-1 {
        fill: #000;
        stroke-width: 0px;
      }
    </style>
  </defs>
  <path class="cls-1" d="M234.11,263.36h-120.57l-.43-.13c-.99-.3-1.99-.56-3-.83-2.36-.62-4.8-1.26-7.14-2.37-14.73-6.98-22.57-19.07-22.69-34.95-.14-19.3-.11-38.92-.08-57.89.01-6.62.02-13.24.02-19.86-.45.45-.9.9-1.34,1.34-2.62,2.62-5.45,3.9-8.65,3.9h-.08c-4.75-.03-8.53-2.33-10.64-6.49-2.07-4.08-1.71-8.41,1-12.21.72-1,1.56-1.85,2.31-2.59,30.14-30.09,60.2-60.1,90.28-90.11,5.74-5.72,13.2-8.87,21.03-8.87h.06c7.86.02,15.36,3.21,21.11,8.99,29.27,29.45,59.55,59.9,89.5,90.13,1.21,1.22,2.08,2.58,2.92,3.89.34.52.67,1.05,1.03,1.55l.55.78v5.97l-.25.57c-2.1,4.82-5.65,7.78-10,8.34-4.26.56-8.62-1.36-11.74-5.12v6.27c0,9.24.01,18.49-.03,27.73-.02,5.51-3.85,10.19-9.32,11.39-5.38,1.18-11.04-1.73-13.15-6.78-.85-2.04-1.04-4.18-1.04-5.61-.02-7.98-.03-15.96-.03-23.93,0-10.7-.01-21.4-.06-32.1,0-.36-.28-1.04-.53-1.29-21.08-21.32-42.58-42.95-63.36-63.86l-1.02-1.03c-1.53-1.54-3.08-2.32-4.59-2.33h0c-1.53,0-3.09.78-4.64,2.33-20.18,20.13-43.05,42.94-65.29,65.23-.16.16-.38.66-.38.88-.06,29.54-.07,61.24-.04,99.76,0,7.66,4.01,13.15,11,15.07,1.4.38,3.03.58,4.84.58,32.64.04,67.06.04,108.33.02,7.77,0,13.15-3.89,15.14-10.94.38-1.33.51-2.9.63-4.41.52-6.32,5.6-11.01,11.85-11.01.09,0,.19,0,.28,0,6.26.14,11.27,5.22,11.42,11.56.41,18.24-13.93,35.2-32,37.88-.04.02-.09.04-.13.06-.18.08-.36.16-.54.23l-.52.2ZM114.43,257.36h118.49c.35-.15.82-.33,1.38-.41,15.24-2.19,27.36-16.47,27.01-31.83-.07-3.13-2.51-5.63-5.55-5.7-3.27-.06-5.75,2.19-6.02,5.5-.14,1.71-.3,3.65-.84,5.54-2.71,9.58-10.52,15.31-20.91,15.31-41.28.02-75.7.01-108.34-.02-2.35,0-4.52-.27-6.43-.8-9.64-2.65-15.4-10.45-15.4-20.86-.03-38.52-.01-70.23.04-99.78,0-1.81.84-3.81,2.14-5.11,22.24-22.3,45.12-45.11,65.3-65.24,2.68-2.67,5.75-4.09,8.88-4.09h.02c3.12,0,6.18,1.42,8.84,4.1l1.02,1.03c20.79,20.91,42.29,42.54,63.38,63.87,1.35,1.36,2.26,3.57,2.27,5.48.05,10.71.06,21.41.06,32.12,0,7.97.01,15.95.03,23.92,0,1.25.21,2.43.58,3.31,1.01,2.41,3.73,3.8,6.32,3.23,2.74-.6,4.6-2.84,4.61-5.56.04-9.23.03-18.47.03-27.7v-21.06s5.14,5.26,5.14,5.26c.64.66,1.26,1.25,1.84,1.82,1.25,1.21,2.43,2.36,3.47,3.68,1.81,2.3,4.25,3.5,6.52,3.2,2.06-.26,3.78-1.73,5.01-4.25v-2.81c-.21-.32-.42-.64-.63-.96-.71-1.1-1.37-2.14-2.14-2.91-29.95-30.23-60.22-60.68-89.5-90.12-4.62-4.65-10.61-7.21-16.86-7.22h-.05c-6.22,0-12.18,2.53-16.79,7.12-30.08,30-60.14,60.02-90.21,90.04-.71.7-1.31,1.3-1.73,1.9-1.43,2-1.59,3.91-.53,6.01,1.1,2.17,2.79,3.19,5.33,3.2h.04c1.57,0,2.93-.66,4.41-2.14,1.44-1.44,2.89-2.89,4.47-4.46l7.12-7.11v10.22c0,8.04-.01,16.07-.02,24.11-.03,18.96-.06,38.56.08,57.84.1,13.61,6.58,23.56,19.26,29.57,1.83.87,3.9,1.41,6.09,1.99.93.25,1.87.49,2.79.76Z"/>
  <path class="cls-1" d="M220.51,171.49c-2.75,0-5.56-.97-7.98-2.94-1.07-.87-2.13-1.76-3.19-2.65-3-2.52-5.83-4.9-8.93-6.87-17.52-11.15-40.48-10.16-57.14,2.46-2.42,1.84-4.78,3.95-7.06,5.99l-.44.39c-5.35,4.79-12.55,4.78-17.12-.01-4.68-4.92-4.28-12.19.95-17.29,11.29-11,24.22-18.1,38.42-21.12,3.78-.8,7.64-1.22,10.45-1.52,1.01-.11,1.89-.2,2.61-.3l.22-.03h.23c22.72.39,41.37,8.11,57.02,23.6,4.75,4.7,4.89,11.85.34,16.64-2.3,2.42-5.3,3.64-8.38,3.64ZM171.65,133.62c-.72.09-1.57.18-2.54.29-2.68.29-6.36.68-9.85,1.42-13.08,2.78-25.02,9.35-35.48,19.55-2.86,2.79-3.18,6.34-.79,8.85,2.35,2.47,5.8,2.34,8.77-.32l.44-.39c2.37-2.12,4.82-4.32,7.44-6.3,18.65-14.12,44.36-15.23,63.99-2.74,3.44,2.19,6.56,4.81,9.57,7.34,1.03.87,2.07,1.74,3.11,2.59,2.68,2.18,6.06,2.1,8.23-.18,2.28-2.4,2.19-5.86-.21-8.24-14.65-14.5-31.39-21.45-52.68-21.86Z"/>
  <path class="cls-1" d="M197.93,195.25c-2.56,0-5.1-.92-7.59-2.77-.65-.48-1.3-.98-1.95-1.48-2.38-1.82-4.63-3.54-7.05-4.6-7.8-3.39-15.23-1.82-22.69,4.8-2.51,2.23-6.47,5.03-11.86,3.67-4.23-1.07-7.45-4.17-8.6-8.29-1.14-4.1,0-8.39,3.06-11.48,7.35-7.43,16.1-11.96,26-13.46,14.33-2.17,27.4,2.32,38.85,13.36,1.57,1.52,2.38,3.46,2.97,4.88.15.36.27.67.4.91l.39.74-.04.83c-.31,5.99-2.54,9.72-7.02,11.76-1.63.74-3.26,1.11-4.88,1.11ZM173.43,178.65c3.4,0,6.83.75,10.29,2.26,3.09,1.34,5.74,3.37,8.31,5.33.63.48,1.25.96,1.88,1.42,2.31,1.71,4.23,2.01,6.41,1.02,1.83-.83,3.13-2.18,3.46-5.88-.08-.19-.17-.39-.25-.6-.41-.98-.92-2.21-1.6-2.86-10.17-9.81-21.23-13.65-33.78-11.75-8.6,1.3-16.21,5.26-22.64,11.75-1.54,1.56-2.11,3.62-1.54,5.65.56,2.02,2.17,3.55,4.28,4.08,2.11.53,3.9-.12,6.41-2.34,6.06-5.37,12.34-8.07,18.77-8.07Z"/>
  <path class="cls-1" d="M174.22,221.15c-3.19,0-6.17-1.22-8.38-3.44-2.23-2.24-3.44-5.25-3.41-8.47.05-6.54,5.23-11.64,11.79-11.64h.05c6.46.03,11.71,5.31,11.71,11.78h-3s3,0,3,0c0,6.47-5.26,11.75-11.72,11.77h-.04ZM174.23,203.59c-3.23,0-5.77,2.5-5.8,5.69-.01,1.61.58,3.1,1.67,4.19,1.08,1.08,2.54,1.68,4.13,1.68h.02c3.22-.01,5.74-2.55,5.74-5.78,0-3.23-2.52-5.77-5.74-5.78h-.02Z"/>
</svg>