<?xml version="1.0" encoding="UTF-8"?>
<svg id="Layer_1" data-name="Layer 1" xmlns="http://www.w3.org/2000/svg" viewBox="0 0 331.26 306.52">
  <defs>
    <style>
      .cls-1 {
        fill: #000;
        stroke-width: 0px;
      }
    </style>
  </defs>
  <path class="cls-1" d="M221.78,228.13c8.53-6.12,15.84-13.42,22.13-22.12-5.64-5.1-8.09-11.02-4.59-18.66,2.32,1.19,4.53,2.31,6.94,3.55-1.8,4.14.38,6.88,3.22,9.39.8.7,1.52,1.49,2.26,2.26,1.58,1.64,1.8,3.51.54,5.36-7.7,11.39-17.24,20.96-28.66,28.64-1.93,1.3-3.71.98-5.33-.58-1.41-1.37-2.76-2.8-4.18-4.15-2.13-2.03-4.52-2.39-7.22-1.25-4.89,2.06-9.78,4.1-14.7,6.1-2.96,1.2-4.19,2.9-4.22,6.17-.02,1.8.01,3.6-.01,5.4-.03,2.43-1.12,3.99-3.63,4.49-10.77,2.13-21.59,2.52-32.48,1.19-2.51-.31-5-.81-7.5-1.18-2.55-.37-3.66-1.95-3.74-4.38-.06-1.88.02-3.77-.04-5.65-.1-3.29-1.35-4.91-4.34-6.11-4.84-1.95-9.66-3.96-14.47-6-2.79-1.19-5.2-.84-7.43,1.29-1.36,1.3-2.67,2.66-4,3.99-1.68,1.67-3.51,1.97-5.52.61-11.3-7.68-20.8-17.17-28.49-28.48-1.34-1.98-1.13-3.85.54-5.54,1.44-1.46,2.93-2.86,4.33-4.36,1.87-2,2.18-4.28,1.12-6.81-2.13-5.04-4.25-10.08-6.3-15.14-1.04-2.58-2.93-3.87-5.62-4.01-1.88-.1-3.77,0-5.65-.03-3.02-.04-4.53-1.08-4.82-4.07-.71-7.31-1.55-14.65-1.64-21.98-.06-5.52.9-11.07,1.54-16.58.42-3.57,1.71-4.61,5.38-4.56,8.72.11,9.62.1,12.44-8.65,1.07-3.32,2.74-6.46,4.22-9.65,1.68-3.61,1.4-5.6-1.35-8.39-1.21-1.22-2.44-2.43-3.64-3.65-1.66-1.69-1.91-3.56-.56-5.54,7.68-11.3,17.17-20.8,28.48-28.48,2.01-1.37,3.84-1.09,5.52.58,1.28,1.27,2.54,2.56,3.83,3.82,2.44,2.37,4.77,2.7,7.83,1.38,4.72-2.03,9.48-3.99,14.24-5.9,3-1.21,4.25-2.82,4.36-6.1.06-1.8-.03-3.6.03-5.4.1-2.98,1.04-4.08,3.97-4.66,12.91-2.57,25.85-2.5,38.78-.19,3.72.67,4.64,1.85,4.6,5.68-.09,8.49-.35,9.17,8.37,12.1,3.47,1.17,6.76,2.87,10.11,4.4,3.22,1.47,5.47,1.13,8.01-1.36,1.29-1.26,2.54-2.56,3.83-3.81,1.61-1.57,3.39-1.9,5.32-.6,11.42,7.67,20.96,17.24,28.67,28.63,1.25,1.85,1.06,3.72-.51,5.36-1.02,1.06-2.03,2.14-3.13,3.12-2.55,2.27-3.86,4.87-2.32,8.48-2.29,1.2-4.51,2.36-6.72,3.52-3.62-5.4-2.41-10.76,4.22-18.64-6.04-8.58-13.47-15.83-21.33-21.58-3.5,1.95-6.45,3.97-9.69,5.3-2.98,1.22-6.1.36-9.05-.9-4.8-2.04-9.61-4.1-14.47-5.99-5.73-2.22-9.2-6.96-9.19-13.43,0-2.33-.76-2.98-3-3.26-8.67-1.09-17.29-1.04-25.95.04-1.99.25-2.54.93-2.53,2.89.02,6.85-3.52,11.57-9.91,13.94-4.13,1.53-8.25,3.14-12.23,5.02-7.48,3.53-12.58,2.81-18.47-2.96-.35-.34-.71-.67-1.21-1.13-8.57,6.17-15.9,13.5-22.11,22.11.66.7,1.21,1.3,1.77,1.87,4.76,4.86,5.65,10.68,2.78,16.9-1.91,4.15-3.73,8.35-5.3,12.64-2.55,6.96-7,10.3-14.34,10.35-.65,0-1.3,0-2.2,0-1.79,10.47-1.72,20.83-.07,31.25,2.22.22,4.35.21,6.39.67,4.74,1.06,7.88,4.04,9.7,8.53,2.02,4.99,4.17,9.93,6.2,14.92,2.28,5.58,1.56,10.74-2.5,15.27-.75.83-1.81,1.39-2.57,1.96,3.66,6.49,14.09,17.04,22.82,23.11.5-.75.96-1.78,1.7-2.5,4.56-4.39,10.34-5.21,16.08-2.62,4.53,2.04,9.13,3.98,13.78,5.74,6.05,2.29,9.73,7.11,9.66,13.64-.03,2.4.83,2.91,3.03,3.2,8.67,1.11,17.3,1.02,25.95-.07,1.76-.22,2.51-.71,2.52-2.69.04-7.5,3.32-11.77,10.35-14.32,3.99-1.45,7.93-3.04,11.77-4.85,7.47-3.53,12.49-2.78,18.44,3.05.35.34.72.67,1.16,1.08Z"/>
  <path class="cls-1" d="M230.55,112.53c-.39.26-.76.56-1.18.79-1.78.97-3.58,1.92-5.49,2.95-12.31-20.77-30.16-33.03-54.23-35.03-20.15-1.68-37.8,4.72-52.36,18.81-28.1,27.2-27.33,71.92,1.58,98.46,30.04,27.58,80.25,22.59,103.26-14.67,2.12,1.3,4.25,2.61,6.37,3.91-13.69,24.42-45.13,40.82-77.04,35.19-35.86-6.32-61.62-36.75-62.65-72.2-1.04-35.74,22.98-67.61,58.52-75.83,35.74-8.26,69.11,10.42,83.23,37.61Z"/>
  <path class="cls-1" d="M135.38,160.31c-4.11-6.15-4.11-17.11-.08-23.58-4.24-5.97-3.22-12.69-2.16-19.14.83-5.08,5.81-8.37,11.04-8.37,15.8-.03,31.6-.03,47.4,0,6.55.01,11.61,5.13,11.69,11.69.02,1.88-.08,3.77.02,5.65.2,3.7-.35,7.18-2.87,9.99,4.09,6.83,4.09,17.6,0,23.76,4.42,5.36,3.01,11.8,2.59,17.85-.39,5.56-5.68,9.63-11.28,9.64-15.88.04-31.76.04-47.65,0-6.39-.02-11.46-5.18-11.55-11.58-.03-2.21,0-4.42,0-6.63,0-4.4.35-5.56,2.86-9.27ZM167.94,132.79c7.44,0,14.88.01,22.32,0,3.74,0,5.14-1.44,5.16-5.22.01-1.96.04-3.93,0-5.89-.07-3.02-1.55-4.61-4.51-4.62-15.37-.04-30.74-.04-46.11,0-2.83,0-4.32,1.61-4.41,4.46-.05,1.63-.01,3.27-.01,4.91,0,5.32,1.02,6.35,6.24,6.35,7.11,0,14.23,0,21.34,0ZM167.89,156.38c7.6,0,15.21.03,22.81-.01,3.15-.02,4.64-1.54,4.71-4.68.05-2.21.06-4.42,0-6.62-.09-2.83-1.62-4.34-4.46-4.42-2.04-.06-4.09-.01-6.13-.01-13.16,0-26.33-.01-39.49,0-3.46,0-4.91,1.48-4.95,4.92-.02,1.88-.02,3.76,0,5.64.03,3.76,1.42,5.16,5.21,5.17,7.44.02,14.88,0,22.32,0ZM167.88,164.22c-7.6,0-15.21-.03-22.81.01-3.15.02-4.63,1.54-4.69,4.68-.04,2.12-.04,4.25,0,6.38.06,3.12,1.56,4.62,4.72,4.66,3.43.05,6.87.01,10.3.01,11.69,0,23.38.01,35.07,0,3.45,0,4.9-1.49,4.95-4.93.03-1.88.02-3.76,0-5.64-.03-3.75-1.44-5.15-5.22-5.15-7.44-.01-14.88,0-22.32,0Z"/>
  <path class="cls-1" d="M215.2,152.43v-7.84c.99,0,1.87,0,2.75,0,16.86,0,33.71-.02,50.56.04,1.58,0,2.41-.42,3.19-1.87,2.57-4.77,8.03-7.02,13.15-5.67,5.21,1.38,8.76,5.79,8.85,11.01.1,5.65-3.2,10.21-8.51,11.76-5.14,1.5-10.65-.51-13.27-5.3-1.04-1.89-2.2-2.15-4.05-2.15-16.61.06-33.22.03-49.83.03h-2.85ZM281.78,152.42c2.01.08,3.96-1.75,4.03-3.79.07-2.01-1.76-3.96-3.79-4.03-2.02-.07-3.95,1.74-4.03,3.79-.08,2.01,1.74,3.95,3.79,4.03Z"/>
  <path class="cls-1" d="M234.84,132.76v-7.84c4.98,0,9.87.02,14.75,0,3.51-.02,7.59.98,10.36-.47,2.68-1.41,4.12-5.31,5.9-8.24,1.39-2.28,3.15-3.45,5.85-3.08.48.07.99-.03,1.47.02,3.18.32,5.59-.08,7.6-3.39,2.67-4.4,8.56-5.57,13.35-3.68,4.89,1.94,7.79,6.66,7.42,12.08-.33,4.86-4.05,9.11-9.07,10.35-4.89,1.21-9.98-.91-12.69-5.28-2.01-3.24-6.82-3.25-8.98-.01-1.63,2.45-3.13,5.01-4.96,7.3-.82,1.03-2.31,2.15-3.51,2.17-9.07.18-18.15.1-27.48.1ZM289.77,120.96c2.03-.01,3.9-1.89,3.91-3.92,0-2.01-1.9-3.91-3.92-3.91-2.02,0-3.91,1.91-3.91,3.93,0,2.02,1.91,3.92,3.92,3.9Z"/>
  <path class="cls-1" d="M234.85,172.08v-7.68c.66-.06,1.28-.16,1.9-.16,8.19-.01,16.37.04,24.56-.04,2.22-.02,3.71.78,4.86,2.63,1.55,2.5,3.24,4.91,4.88,7.36,1.86,2.78,6.84,2.67,8.55-.19,2.8-4.67,8.18-6.87,13.29-5.43,5.27,1.49,8.68,5.98,8.66,11.41-.02,5.38-3.57,9.95-8.79,11.32-5.21,1.36-10.56-.81-13.17-5.6-.79-1.44-1.61-1.87-3.2-1.88-9.93-.09-7.56,1.58-13.11-7.18-2.22-3.5-4.54-4.97-8.76-4.68-6.44.43-12.92.11-19.67.11ZM293.68,179.96c.01-2.01-1.89-3.92-3.91-3.92-2.02,0-3.92,1.89-3.92,3.91,0,2.02,1.89,3.92,3.91,3.92,2.03,0,3.91-1.88,3.92-3.91Z"/>
  <path class="cls-1" d="M219.1,132.58v-7.51h7.63v7.51h-7.63Z"/>
  <path class="cls-1" d="M226.74,171.99h-7.57v-7.61h7.57v7.61Z"/>
  <path class="cls-1" d="M191.41,121.15v7.49h-31.19v-7.49h31.19Z"/>
  <path class="cls-1" d="M152.07,121.19v7.5h-7.63v-7.5h7.63Z"/>
  <path class="cls-1" d="M160.16,152.26v-7.56h31.12v7.56h-31.12Z"/>
  <path class="cls-1" d="M144.45,144.7h7.53v7.57h-7.53v-7.57Z"/>
  <path class="cls-1" d="M191.36,168.34v7.55h-31.12v-7.55h31.12Z"/>
  <path class="cls-1" d="M152,175.97h-7.5v-7.63h7.5v7.63Z"/>
</svg>